<svg viewBox="0 0 300 200" xmlns="http://www.w3.org/2000/svg">
  <!-- Orange stripe (Saffron) -->
  <rect width="300" height="66.67" fill="#FF9933"/>
  
  <!-- White stripe -->
  <rect y="66.67" width="300" height="66.66" fill="#FFFFFF"/>
  
  <!-- Green stripe -->
  <rect y="133.33" width="300" height="66.67" fill="#138808"/>
  
  <!-- Ashoka Chakra (Blue circle with 24 spokes) -->
  <g transform="translate(150, 100)">
    <!-- Outer circle -->
    <circle cx="0" cy="0" r="30" fill="none" stroke="#002395" stroke-width="2"/>
    
    <!-- Center circle -->
    <circle cx="0" cy="0" r="4" fill="#002395"/>
    
    <!-- 24 spokes (each spoke is a line from center outward) -->
    <line x1="0" y1="-30" x2="0" y2="-28" stroke="#002395" stroke-width="1.5"/>
    <line x1="7.76" y1="-28.99" x2="8.31" y2="-27.02" stroke="#002395" stroke-width="1.5"/>
    <line x1="15.00" y1="-26.00" x2="16.07" y2="-24.26" stroke="#002395" stroke-width="1.5"/>
    <line x1="21.21" y1="-21.21" x2="22.73" y2="-19.72" stroke="#002395" stroke-width="1.5"/>
    <line x1="26.00" y1="-15.00" x2="27.86" y2="-13.08" stroke="#002395" stroke-width="1.5"/>
    <line x1="28.99" y1="-7.76" x2="31.07" y2="-5.47" stroke="#002395" stroke-width="1.5"/>
    <line x1="30" y1="0" x2="32" y2="0" stroke="#002395" stroke-width="1.5"/>
    <line x1="28.99" y1="7.76" x2="31.07" y2="5.47" stroke="#002395" stroke-width="1.5"/>
    <line x1="26.00" y1="15.00" x2="27.86" y2="13.08" stroke="#002395" stroke-width="1.5"/>
    <line x1="21.21" y1="21.21" x2="22.73" y2="19.72" stroke="#002395" stroke-width="1.5"/>
    <line x1="15.00" y1="26.00" x2="16.07" y2="24.26" stroke="#002395" stroke-width="1.5"/>
    <line x1="7.76" y1="28.99" x2="8.31" y2="27.02" stroke="#002395" stroke-width="1.5"/>
    <line x1="0" y1="30" x2="0" y2="32" stroke="#002395" stroke-width="1.5"/>
    <line x1="-7.76" y1="28.99" x2="-8.31" y2="27.02" stroke="#002395" stroke-width="1.5"/>
    <line x1="-15.00" y1="26.00" x2="-16.07" y2="24.26" stroke="#002395" stroke-width="1.5"/>
    <line x1="-21.21" y1="21.21" x2="-22.73" y2="19.72" stroke="#002395" stroke-width="1.5"/>
    <line x1="-26.00" y1="15.00" x2="-27.86" y2="13.08" stroke="#002395" stroke-width="1.5"/>
    <line x1="-28.99" y1="7.76" x2="-31.07" y2="5.47" stroke="#002395" stroke-width="1.5"/>
    <line x1="-30" y1="0" x2="-32" y2="0" stroke="#002395" stroke-width="1.5"/>
    <line x1="-28.99" y1="-7.76" x2="-31.07" y2="-5.47" stroke="#002395" stroke-width="1.5"/>
    <line x1="-26.00" y1="-15.00" x2="-27.86" y2="-13.08" stroke="#002395" stroke-width="1.5"/>
    <line x1="-21.21" y1="-21.21" x2="-22.73" y2="-19.72" stroke="#002395" stroke-width="1.5"/>
    <line x1="-15.00" y1="-26.00" x2="-16.07" y2="-24.26" stroke="#002395" stroke-width="1.5"/>
    <line x1="-7.76" y1="-28.99" x2="-8.31" y2="-27.02" stroke="#002395" stroke-width="1.5"/>
  </g>
</svg>